<svg width="266" height="71" viewBox="0 0 266 71" fill="none" xmlns="http://www.w3.org/2000/svg">
<g clip-path="url(#clip0_1_325)">
<path d="M154.708 19.7087L169.964 13.9763L154.708 8.08009V0.0546875L180.838 10.7006V17.252L154.708 27.8979V19.7087Z" fill="#A100FF"/>
<path d="M10.4266 70.4824C4.90854 70.4824 0.364258 67.698 0.364258 61.4742V61.1467C0.364258 53.6126 6.85609 50.9921 14.8086 50.9921H18.5414V49.518C18.5414 46.4061 17.243 44.6045 13.9971 44.6045C11.0758 44.6045 9.61512 46.2424 9.45283 48.5353H1.33803C1.98722 41.6564 7.34298 38.3807 14.484 38.3807C21.7873 38.3807 27.1431 41.4926 27.1431 49.1905V69.8272H18.866V66.224C17.243 68.5169 14.484 70.4824 10.4266 70.4824ZM18.5414 59.6726V56.7245H15.1332C10.9135 56.7245 8.80364 57.871 8.80364 60.6553V60.9829C8.80364 63.1121 10.102 64.5861 13.0233 64.5861C15.9447 64.4224 18.5414 62.7845 18.5414 59.6726ZM46.4563 70.4824C38.0169 70.4824 31.8497 65.2413 31.8497 54.7591V54.2678C31.8497 43.7856 38.3415 38.2169 46.4563 38.2169C53.435 38.2169 59.1154 41.8202 59.7645 49.8456H51.6498C51.1629 46.8975 49.5399 44.9321 46.6186 44.9321C43.0481 44.9321 40.4513 47.8802 40.4513 53.9402V54.9229C40.4513 61.1467 42.7235 63.931 46.6186 63.931C49.5399 63.931 51.6497 61.8018 52.1366 58.3624H59.9268C59.44 65.5688 54.7334 70.4824 46.4563 70.4824ZM78.2663 70.4824C69.8269 70.4824 63.6596 65.2413 63.6596 54.7591V54.2678C63.6596 43.7856 70.1515 38.2169 78.2663 38.2169C85.245 38.2169 90.9254 41.8202 91.5745 49.8456H83.4597C82.9729 46.8975 81.3499 44.9321 78.4286 44.9321C74.8581 44.9321 72.2613 47.8802 72.2613 53.9402V54.9229C72.2613 61.1467 74.5335 63.931 78.4286 63.931C81.3499 63.931 83.4597 61.8018 83.9466 58.3624H91.7368C91.2499 65.5688 86.5434 70.4824 78.2663 70.4824ZM110.239 70.4824C101.475 70.4824 95.4696 65.2413 95.4696 54.9229V54.2678C95.4696 43.9494 101.799 38.2169 110.076 38.2169C117.704 38.2169 124.034 42.4753 124.034 52.7937V56.5607H104.071C104.396 62.1294 106.83 64.2586 110.401 64.2586C113.647 64.2586 115.432 62.4569 116.081 60.3278H124.034C123.06 66.0602 118.191 70.4824 110.239 70.4824ZM104.234 50.8283H115.594C115.432 46.2424 113.322 44.2769 109.914 44.2769C107.317 44.4407 104.883 45.9148 104.234 50.8283ZM129.227 39.0359H137.829V43.6218C139.29 40.6737 142.373 38.3807 147.08 38.3807C152.598 38.3807 156.331 41.8202 156.331 49.1905V69.8272H147.729V50.5007C147.729 46.8975 146.268 45.2597 143.185 45.2597C140.263 45.2597 137.829 47.0613 137.829 50.9921V69.8272H129.227V39.0359ZM172.073 29.7002V39.0359H177.916V45.4234H172.073V60.0002C172.073 62.2932 173.047 63.4397 175.157 63.4397C176.455 63.4397 177.267 63.2759 178.078 62.9483V69.6634C177.104 69.991 175.319 70.3186 173.209 70.3186C166.555 70.3186 163.472 67.2067 163.472 60.9829V45.4234H159.901V39.0359H163.472V33.3034L172.073 29.7002ZM210.051 69.8272H201.611V65.2413C200.15 68.1894 197.229 70.4824 192.685 70.4824C187.167 70.4824 183.109 67.0429 183.109 59.8364V39.0359H191.711V58.6899C191.711 62.2932 193.172 63.931 196.093 63.931C199.014 63.931 201.449 61.9656 201.449 58.1986V39.0359H210.051V69.8272ZM216.38 39.0359H224.982V44.7683C226.767 40.6737 229.688 38.7083 234.233 38.7083V47.2251C228.39 47.2251 224.982 49.0267 224.982 54.104V69.991H216.38V39.0359ZM251.598 70.4824C242.834 70.4824 236.829 65.2413 236.829 54.9229V54.2678C236.829 43.9494 243.159 38.2169 251.436 38.2169C259.064 38.2169 265.393 42.4753 265.393 52.7937V56.5607H245.593C245.918 62.1294 248.352 64.2586 251.923 64.2586C255.169 64.2586 256.954 62.4569 257.603 60.3278H265.556C264.257 66.0602 259.551 70.4824 251.598 70.4824ZM245.431 50.8283H256.954C256.792 46.2424 254.682 44.2769 251.274 44.2769C248.677 44.4407 246.242 45.9148 245.431 50.8283Z" fill="black"/>
</g>
<defs>
<clipPath id="clip0_1_325">
<rect width="264.867" height="70.427" fill="white" transform="translate(0.364258 0.0546875)"/>
</clipPath>
</defs>
</svg>
