<svg width="292" height="75" viewBox="0 0 292 75" fill="none" xmlns="http://www.w3.org/2000/svg">
<g clip-path="url(#clip0_1_331)">
<path d="M11.4304 58.4688L14.7707 47.4429H27.9996L31.1321 58.4688H43.3851L31.2014 16.4158C30.5056 13.9475 28.9725 12.783 26.3279 12.783H8.99663V16.7565H10.4575C12.2677 16.7565 13.2436 17.444 13.2436 18.81C13.2436 19.7019 13.0328 20.4546 12.337 22.511L0.150269 58.4688H11.4304ZM26.3279 39.9758H16.5117L21.7315 23.1925L26.3279 39.9758ZM57.5025 58.4688V16.2765C57.5025 14.0867 56.1833 12.783 54.0206 12.783H43.3008V16.7565H43.9966C45.8068 16.7565 46.5718 17.5092 46.5718 19.29V58.4658L57.5025 58.4688ZM76.0718 58.4688V16.2765C76.0718 14.0867 74.7465 12.783 72.5959 12.783H61.87V16.7565H62.5658C64.376 16.7565 65.1411 17.5092 65.1411 19.29V58.4658L76.0718 58.4688ZM94.9241 58.4688V27.7113C94.9241 25.5245 93.6019 24.2237 91.4452 24.2237H80.8609V28.1261H81.4904C83.3007 28.1261 84.0657 28.9469 84.0657 30.7278V58.4658L94.9241 58.4688ZM95.132 16.961C95.132 13.8793 92.8368 12.0303 88.8669 12.0303C84.9663 12.0303 82.6019 13.8793 82.6019 16.961C82.6019 20.0427 84.9663 21.8946 88.8669 21.8946C92.8368 21.8946 95.132 20.0427 95.132 16.961ZM104.165 34.0139C107.786 32.3042 111.755 31.3471 114.888 31.3471C117.81 31.3471 118.855 32.3753 118.855 35.3829V36.1385C114.4 36.82 113.008 37.0986 110.502 37.6467C109.099 37.9661 107.724 38.4002 106.394 38.9446C102.008 40.6573 99.9181 44.0146 99.9181 49.1467C99.9181 55.6508 102.774 58.8066 108.692 58.8066C110.849 58.8066 112.801 58.4006 114.539 57.7132C116.072 57.0317 116.975 56.4805 119.204 54.7678V55.2479C119.204 57.3724 120.319 58.4658 122.475 58.4658H132.43V54.7678H131.945C130.063 54.7678 129.367 53.947 129.367 51.7513V35.454C129.367 26.7542 126.304 23.7407 117.46 23.7407C114.611 23.7407 111.828 24.0815 109.108 24.6978C106.394 25.3141 104.999 25.8623 101.728 27.4417L104.165 34.0139ZM118.855 42.0322V48.6756C117.045 50.5216 114.819 51.621 112.936 51.621C110.99 51.621 110.295 50.6609 110.295 48.1244C110.295 45.588 110.849 44.4264 112.801 43.6738C114.261 43.0575 116.141 42.5122 118.855 42.0322ZM148.288 58.4688V35.3207C150.099 33.3354 151.978 32.4435 154.135 32.4435C156.433 32.4435 156.987 33.3354 156.987 36.7637V58.4718H167.846V35.1873C167.846 29.7766 167.43 28.0669 165.686 26.2149C164.225 24.6385 161.999 23.8118 159.141 23.8118C154.9 23.8118 151.903 25.1156 147.864 28.8136V27.4446C147.864 25.3171 146.755 24.2237 144.52 24.2237H134.219V28.1261H134.846C136.659 28.1261 137.424 28.9469 137.424 30.7278V58.4658L148.288 58.4688ZM200.075 51.2743H184.894L199.379 31.2789V24.2237H176.683C174.102 24.2237 172.924 25.3852 172.924 27.9217V34.1502H176.963V33.5369C176.963 31.9634 177.797 31.2078 179.535 31.2078H187.337L172.716 51.4135V58.4688H200.081V51.2743H200.075ZM290.981 37.2349C290.981 16.2084 275.035 0.524414 253.656 0.524414C232.285 0.524414 216.27 16.2084 216.27 37.2349C216.27 58.3295 232.285 74.0135 253.656 74.0135C275.035 74.0135 290.981 58.3295 290.981 37.2349ZM283.598 37.2349C283.598 54.5634 270.924 67.1686 253.656 67.1686C236.321 67.1686 223.722 54.5634 223.722 37.2349C223.722 19.9775 236.324 7.37522 253.656 7.37522C270.924 7.37522 283.598 19.9775 283.598 37.2349ZM243.981 56.6168V23.3999H237.921C234.927 23.3999 233.74 24.5644 233.74 27.5098V56.6139L243.981 56.6168ZM263.33 56.6168H273.499V27.5098C273.499 24.5644 272.385 23.3999 269.318 23.3999H263.33V56.6168ZM258.74 56.6168V18.0603C258.74 14.9757 257.695 13.9475 254.559 13.9475H245.442V18.1937H245.999L246.975 18.2589C247.324 18.2589 247.668 18.4663 247.951 18.7419C248.37 19.2189 248.505 19.699 248.505 20.7272V56.6168H258.74Z" fill="#2360A5"/>
</g>
<defs>
<clipPath id="clip0_1_331">
<rect width="290.894" height="73.4891" fill="white" transform="translate(0.117188 0.524414)"/>
</clipPath>
</defs>
</svg>
