<svg width="23" height="28" viewBox="0 0 23 28" fill="none" xmlns="http://www.w3.org/2000/svg">
<path d="M17.4378 26.992C16.3783 26.8711 14.9336 26.3181 12.847 24.8188C10.3102 22.99 8.37395 21.3479 5.98515 18.3523C3.68255 15.4589 2.60968 13.6333 1.20711 10.211C-0.37764 6.34669 0.180739 4.47963 0.654743 3.70853C1.21963 2.78672 1.9559 2.28084 2.88762 1.80166C3.41613 1.53566 3.96804 1.31891 4.53634 1.15417C4.59328 1.13703 4.6463 1.12054 4.69364 1.1056C4.97614 1.01524 5.40411 0.878806 5.89748 1.13302C6.22688 1.30146 6.50394 1.60081 6.93067 2.13055C7.80596 3.21561 8.90657 5.53532 9.2824 6.65574C9.53441 7.41074 9.70133 7.90918 9.6413 8.44C9.57039 9.06139 9.20305 9.50491 8.76462 9.9788C8.68242 10.0678 8.60127 10.1526 8.52259 10.2349C8.04759 10.7304 7.93905 10.8769 7.9668 11.1638C8.02362 11.7404 8.73512 13.5187 10.0497 15.1679C11.3643 16.8171 12.8951 17.8483 13.4464 18.0333C13.7313 18.129 13.9022 18.0529 14.5112 17.6892C14.5986 17.637 14.6883 17.5829 14.7819 17.5293C15.4096 17.1649 15.9014 16.9126 16.5082 16.9819L16.5115 16.9823C17.0396 17.0425 17.4656 17.3232 18.1716 17.7864C19.0924 18.3906 21.1721 19.9754 22.0381 21.0743C22.4594 21.6083 22.6899 21.9447 22.7804 22.303C22.9168 22.8425 22.6865 23.2269 22.5356 23.4846C22.5104 23.5273 22.4825 23.5742 22.4529 23.6263C22.1626 24.1416 21.8256 24.6291 21.446 25.0826C20.7705 25.8797 20.1097 26.481 19.0819 26.8239C18.5537 27.0037 17.9915 27.0612 17.4378 26.992Z" fill="white"/>
</svg>
