<svg width="296" height="87" viewBox="0 0 296 87" fill="none" xmlns="http://www.w3.org/2000/svg">
<g clip-path="url(#clip0_1_374)">
<path d="M31.4854 0.400391L0.490234 21.8347L16.16 32.6376L31.4854 22.0062L46.8108 32.6376L62.4806 21.8347L31.4854 0.400391Z" fill="#FA555F"/>
<path d="M0.490234 64.7036L31.4854 86.1379V64.5321L16.16 53.9007V32.6379L0.490234 21.835V64.7036Z" fill="#27AECF"/>
<path d="M46.982 43.2686H31.4844V64.5314H46.982V43.2686Z" fill="#27AECF"/>
<path d="M31.4844 86.1372L62.4795 64.7029V43.2686L31.4844 64.5314V86.1372Z" fill="#073262"/>
<path d="M46.985 53.8983L31.4874 43.2669L46.8128 32.6355L62.4826 43.2669L46.985 53.8983Z" fill="#FA555F"/>
<path d="M105.701 51.4997C110.006 51.4997 113.795 47.5557 113.795 42.7545C113.795 37.9532 110.178 34.0093 105.701 34.0093C101.396 34.0093 97.7804 37.9532 97.7804 42.7545C97.7804 47.5557 101.396 51.4997 105.701 51.4997ZM98.8136 58.5301C100.191 61.1022 102.774 62.817 105.701 62.817C110.006 62.817 113.45 59.0445 113.45 54.4147V54.0718H113.278C110.867 56.4724 107.768 58.0157 104.324 58.0157C96.9194 58.0157 90.8926 51.1567 90.8926 42.9259C90.8926 34.5237 96.9194 27.8362 104.324 27.8362C107.768 27.8362 110.867 29.3795 113.278 31.7801H113.45V28.6936H120.338V54.7577C120.338 62.9885 114.311 69.676 106.046 69.676C100.536 69.676 95.714 66.7609 93.1311 62.3026L98.8136 58.5301Z" fill="#27AECF"/>
<path d="M145.133 38.8105C143.583 35.8955 141 34.0093 137.729 34.0093C134.457 34.0093 131.874 35.724 130.324 38.8105V38.982H145.133V38.8105ZM144.444 48.7561L149.266 53.5574C146.51 56.3009 142.55 58.0157 138.417 58.0157C129.98 58.0157 123.092 51.3282 123.092 42.9259C123.092 34.5237 129.635 27.8362 137.901 27.8362C146.166 27.8362 152.71 34.5237 152.71 42.9259C152.71 44.2977 152.537 44.6407 152.537 44.6407H129.98C129.98 47.8987 133.768 51.4997 138.073 51.4997C140.484 51.4997 142.722 50.2993 144.444 48.7561Z" fill="#27AECF"/>
<path d="M162.526 42.7528V57.1567H155.638V28.5205H162.526V31.9499H162.698C165.108 29.0349 168.208 27.6631 171.48 27.6631C183.878 27.6631 184.05 38.8089 184.05 42.2384V57.1567H177.162V42.7528C177.162 39.3234 177.162 34.0076 169.93 34.0076C165.797 34.0076 162.526 37.9516 162.526 42.7528Z" fill="#27AECF"/>
<path d="M201.788 34.0076C197.311 34.0076 193.694 37.9516 193.694 42.7528C193.694 47.5541 197.311 51.498 201.788 51.498C206.093 51.498 209.709 47.5541 209.709 42.7528C209.881 37.9516 206.265 34.0076 201.788 34.0076ZM203.337 58.0141C199.894 58.0141 196.794 56.6423 194.383 54.0702H194.211V68.474H187.323V28.5205H194.211V31.607H194.383C196.794 29.2064 199.894 27.6631 203.337 27.6631C210.742 27.6631 216.769 34.3506 216.769 42.7528C216.769 51.1551 210.742 58.0141 203.337 58.0141Z" fill="#27AECF"/>
<path d="M233.989 51.498C238.294 51.498 241.91 47.7256 241.91 42.7528C241.91 37.9516 238.294 34.0076 233.989 34.0076C229.684 34.0076 226.068 37.9516 226.068 42.7528C225.896 47.7256 229.684 51.498 233.989 51.498ZM232.439 27.6631C235.883 27.6631 238.982 29.2064 241.393 31.607H241.565V28.5205H248.453V57.3282H241.565V54.4131L241.393 54.2416C238.982 56.6423 235.883 58.1855 232.439 58.1855C225.035 58.1855 219.008 51.498 219.008 43.0958C219.008 34.3506 225.035 27.6631 232.439 27.6631Z" fill="#27AECF"/>
<path d="M277.208 53.3856C274.453 56.1292 270.492 58.0154 266.36 58.0154C257.922 58.0154 251.034 51.3279 251.034 42.9257C251.034 34.5234 257.75 27.8359 266.36 27.8359C270.664 27.8359 274.453 29.5507 277.208 32.4658L272.386 36.9241C270.837 35.2093 268.77 34.352 266.36 34.352C261.71 34.352 257.922 38.2959 257.922 43.0972C257.922 47.8985 261.538 51.8424 266.36 51.8424C268.77 51.8424 271.009 50.8135 272.559 49.0988L277.208 53.3856Z" fill="#27AECF"/>
<path d="M291.157 35.0373V57.1576H284.269V35.0373H279.447V28.5213H284.269V15.4893H291.157V28.5213H295.978V35.0373H291.157Z" fill="#27AECF"/>
</g>
<defs>
<clipPath id="clip0_1_374">
<rect width="295.487" height="85.7373" fill="white" transform="translate(0.490234 0.400391)"/>
</clipPath>
</defs>
</svg>
