<svg width="295" height="44" viewBox="0 0 295 44" fill="none" xmlns="http://www.w3.org/2000/svg">
<path d="M262.977 2.35548L249.538 32.9534H294.866L290.658 42.5206H212.718L230.273 2.35548H262.977ZM184.595 16.0198H214.771C214.585 9.27665 208.207 4.59523 195.573 2.73671C170.646 -1.01796 143.689 0.582232 124.498 11.4324C109.374 20.034 108.218 32.9722 123.285 39.3127C135.973 44.6024 162.615 45.1517 181.681 41.8334C194.025 39.6864 203.457 35.538 208.745 29.3254H177.928C173.932 32.4731 168.708 34.0406 162.615 34.0958C145.313 34.2137 143.03 28.8513 146.047 22.6763C149.636 15.4015 157.164 11.4324 168.645 11.1189C177.686 10.8693 182.155 12.9197 184.595 16.0198ZM0.866211 42.5532H32.7652L39.5983 26.515H70.8725L63.8508 42.5307H96.1296L113.839 2.36175H81.3401L75.4981 15.9144H44.2569L50.1749 2.36175L18.5932 2.35423L0.866211 42.5532Z" fill="#0066FF"/>
</svg>
