<svg width="265" height="131" viewBox="0 0 265 131" fill="none" xmlns="http://www.w3.org/2000/svg">
<path d="M46.4651 31.5146V36.1649H79.9308V31.5146H46.4651ZM84.6752 31.5146V36.1649H132.37C132.37 36.1649 127.498 31.5146 121.046 31.5146H84.6752ZM141.725 31.5146V36.1649H170.575L168.864 31.5146H141.725ZM191.265 31.5146L189.553 36.1649H218.147V31.5146H191.265ZM46.4651 40.5592V45.2094H79.9308V40.5592H46.4651ZM84.6752 40.5657V45.2072H137.9C137.9 45.2072 137.279 41.6285 136.195 40.5657H84.6752ZM141.725 40.5657V45.2072H173.764L172.179 40.5657H141.725ZM187.839 40.5657L186.255 45.2072H218.145V40.5657H187.839ZM56.0835 49.6037V54.2604H70.5779V49.6037H56.0835ZM94.2935 49.6037V54.2604H108.788V49.6037H94.2935ZM122.887 49.6037V54.2604H137.382C137.382 54.2604 138.304 51.8008 138.304 49.6037H122.887ZM151.345 49.6037V54.2604H177.02L175.309 49.6037H151.345ZM184.686 49.6037L182.965 54.2604H208.79V49.6037H184.686ZM56.0857 58.6547V63.3049H70.5801V58.6547H56.0857ZM94.2957 58.6547V63.3049H131.316C131.316 63.3049 134.411 60.9191 135.398 58.6547H94.2957ZM151.345 58.6547V63.3049H165.84V60.7152L166.761 63.3049H193.314L194.302 60.7152V63.3049H208.796V58.6547H181.585L180.141 62.5935L178.693 58.6547H151.345ZM56.0835 67.6992V72.3494H70.5779V67.6992H56.0835ZM94.2935 67.6992V72.3494H135.396C134.408 70.0937 131.314 67.6992 131.314 67.6992H94.2935ZM151.343 67.6992V72.3494H165.837V67.6992H151.343ZM168.471 67.6992L170.226 72.3494H190.135L191.802 67.6992H168.471ZM194.295 67.6992V72.3494H208.79V67.6992H194.295ZM56.0879 76.7437V81.3939H70.5823V76.7437H56.0879ZM94.2979 76.7437V81.3939H108.792V76.7437H94.2979ZM122.892 76.7437V81.3939H138.306C138.306 79.199 137.384 76.7437 137.384 76.7437H122.892ZM151.35 76.7437V81.3939H165.844V76.7437H151.35ZM171.767 76.7437L173.465 81.3939H186.808L188.519 76.7437H171.767ZM194.3 76.7437V81.3939H208.794V76.7437H194.3ZM46.7329 85.7882V90.445H80.1985V85.7882H46.7329ZM84.6818 85.7882V90.445H136.203C137.287 89.3778 137.909 85.7882 137.909 85.7882H84.6818ZM141.992 85.7882V90.445H165.835V85.7882H141.992ZM175.063 85.7882L176.81 90.445H183.6L185.239 85.7882H175.063ZM194.3 85.7882V90.445H218.412V85.7882H194.3ZM46.7329 94.8393V99.4895H80.1985V94.8393H46.7329ZM84.6818 94.8393V99.4808H121.046C127.498 99.4808 132.37 94.8393 132.37 94.8393H84.6818ZM141.992 94.8393V99.4895H165.835V94.8393H141.992ZM178.377 94.8393L180.055 99.4765L180.345 99.483L182.05 94.8414L178.377 94.8393ZM194.302 94.8393V99.4895H218.415V94.8393H194.302Z" fill="#1F70C1"/>
</svg>
