<svg width="238" height="90" viewBox="0 0 238 90" fill="none" xmlns="http://www.w3.org/2000/svg">
<g clip-path="url(#clip0_1_339)">
<path fill-rule="evenodd" clip-rule="evenodd" d="M230.248 15.3897C234.178 15.3897 237.452 12.1531 237.452 8.08657C237.452 4.10305 234.178 0.783447 230.248 0.783447C226.319 0.783447 223.045 4.10305 223.045 8.08657C223.127 12.1531 226.319 15.3897 230.248 15.3897ZM224.191 8.16956C224.191 4.76697 226.974 1.94531 230.33 1.94531C233.686 1.94531 236.47 4.76697 236.47 8.16956C236.47 11.5721 233.686 14.3938 230.33 14.3938C226.892 14.3108 224.191 11.5721 224.191 8.16956ZM227.547 11.8211H228.939V8.6675H230.576L231.804 11.7381H233.359L231.967 8.41853C232.459 8.16956 233.277 7.92059 233.277 6.50976C233.277 4.26903 231.64 4.02006 230.166 4.02006H227.629V11.8211H227.547ZM228.939 5.43089H230.494C231.312 5.43089 231.804 5.76285 231.804 6.42677C231.804 7.09069 231.312 7.42265 230.658 7.42265H229.02V5.43089H228.939Z" fill="#007CC3"/>
<path d="M0.143433 11.4056V11.3226V2.69165H8.65674V11.3226V11.4056V65.5981V65.764V74.229H0.143433V65.6811V65.5981V11.4056Z" fill="#007CC3"/>
<path d="M86.5031 48.1711C86.7487 61.2005 94.689 71.5743 104.348 71.4083C114.008 71.2423 121.62 60.5366 121.375 47.5902C121.129 34.5607 113.189 24.187 103.53 24.353C93.8704 24.5189 86.2575 35.2246 86.5031 48.1711ZM156.738 32.486C156.983 32.9839 156.41 31.7391 156.41 31.7391L156.738 32.486ZM162.55 86.3465C162.959 85.6826 163.45 84.6867 164.105 83.3588L162.55 86.3465ZM163.041 28.0045C163.123 28.2535 163.287 28.5854 163.368 28.9174L166.233 35.9716L163.041 28.0045ZM127.514 63.6902C132.753 68.5036 137.501 70.9933 143.559 70.9933C149.78 71.0763 155.264 68.0057 155.264 62.1134C155.264 57.217 150.926 54.3123 143.231 50.9927C136.682 48.1711 131.853 46.0963 129.315 42.0298C129.643 43.8556 129.806 45.6814 129.806 47.5902C129.806 63.5242 118.346 76.4707 104.266 76.4707C90.1049 76.4707 78.7265 63.5242 78.7265 47.5902C78.7265 37.9633 82.9013 29.4153 89.2863 24.187H71.9322V65.599V65.765V74.3129H64.2375V66.0969C64.2375 65.9309 64.2375 65.765 64.2375 65.682V24.187H57.4432V18.9586H64.3194C65.3017 8.41888 71.6867 2.4436 80.6093 2.4436C86.4212 2.4436 89.5319 3.02453 91.4146 3.93742V11.0746C91.4146 11.5725 91.4146 11.9045 91.4146 11.9045C91.3327 11.9045 91.169 11.9045 91.169 11.9045C88.3858 9.33177 85.6845 7.34001 79.2177 7.34001C74.1424 7.34001 70.7862 11.5725 71.9322 18.8756H100.665C101.811 18.7096 103.039 18.6266 104.266 18.6266C114.499 18.6266 123.34 25.4318 127.351 35.3076C127.351 34.7267 127.269 34.2288 127.269 33.5648C127.269 23.2741 137.092 18.9586 147.242 18.9586C147.652 18.9586 147.979 18.9586 148.388 18.9586C151.99 18.8756 157.065 20.1205 160.176 20.9504L163.041 28.0045L166.233 35.9716L174.911 57.3L175.893 60.7026L177.039 57.3L187.926 29.9133C189.973 22.3612 197.913 19.1246 206.754 19.1246C211.174 19.1246 214.366 19.6225 218.214 21.0334V29.3324C213.466 25.8468 210.028 23.772 204.625 23.772C199.877 23.772 194.147 25.9298 194.147 32.9839C194.065 38.2953 197.258 39.2912 206.508 43.9386C214.121 47.2582 221.161 50.9927 221.243 59.5407C221.243 73.815 207.327 76.3047 200.532 76.3047C194.475 76.3047 188.99 74.8109 185.88 72.2382V62.8603L186.371 63.2753C191.855 68.5036 196.685 71.1593 202.988 71.1593C209.209 71.2423 214.694 68.1717 214.694 62.2794C214.694 57.383 210.355 54.4783 202.661 51.1587C195.293 47.9221 190.464 45.7644 188.499 40.453C185.47 47.8391 171.554 82.28 168.28 89.6661H160.749L162.55 86.2635L164.105 83.2758L164.187 83.1929C166.07 79.4583 168.853 73.566 171.227 67.8397L156.738 32.403C156.656 32.154 156.41 31.6561 155.919 30.4942C154.773 27.9215 153.791 25.5978 150.68 24.353C149.043 23.772 147.242 23.5231 145.114 23.5231C140.366 23.5231 134.227 25.6808 134.227 32.7349C134.145 38.0463 137.665 39.0422 146.915 43.6896C154.528 47.0092 161.568 50.7438 161.649 59.2917C161.649 73.566 147.733 76.0557 140.939 76.0557C135.536 76.0557 130.625 74.8939 127.351 72.7361V63.6902H127.514Z" fill="#007CC3"/>
<path d="M24.4557 19.4581L24.5375 25.6823V26.0973H24.6194C24.7013 25.8483 24.865 25.5994 24.9468 25.4334C28.0575 22.0308 31.9867 18.7112 41.3186 18.7112C50.2412 18.7112 56.0532 26.4292 56.2987 31.2427V65.5175V65.6835V74.1485H48.604V63.9407V34.7283C48.604 28.67 43.365 24.3545 36.9801 24.3545C31.6593 24.3545 24.7831 29.1679 24.6194 34.1473V65.6005V65.8495V74.3145H16.9247V65.6005V26.6782V19.4581H18.3163H22.4911H24.4557Z" fill="#007CC3"/>
</g>
<defs>
<clipPath id="clip0_1_339">
<rect width="237.308" height="88.7993" fill="white" transform="translate(0.143433 0.867188)"/>
</clipPath>
</defs>
</svg>
