<svg width="311" height="64" viewBox="0 0 311 64" fill="none" xmlns="http://www.w3.org/2000/svg">
<path fill-rule="evenodd" clip-rule="evenodd" d="M32.4844 4.13163C47.6924 4.13163 60.0254 16.4646 60.0254 31.6709C60.0254 46.7454 47.904 58.9934 32.8797 59.2049L45.5942 36.2489H54.2491L58.9363 27.783H37.1768L32.4913 36.2489H40.6138L28.0919 58.8599C14.9717 56.7547 4.94511 45.3824 4.94511 31.6709C4.94511 19.2356 13.1925 8.72353 24.5144 5.30388L12.0653 27.783H12.0636L7.37805 36.2489H29.1358L33.8231 27.783H17.0457L30.0861 4.23568C30.8769 4.16805 31.6763 4.13163 32.4844 4.13163ZM32.4844 0.117188C49.9086 0.117188 64.0398 14.2466 64.0398 31.6709C64.0398 49.0951 49.9086 63.2263 32.4844 63.2263C15.0601 63.2263 0.930664 49.0951 0.930664 31.6709C0.930664 14.2466 15.0601 0.117188 32.4844 0.117188Z" fill="#0D68B3"/>
<path d="M77.5713 40.1231H89.4048L90.1106 36.9618H82.5048L85.5586 23.2191H81.3308L77.5713 40.1231ZM102.945 35.7341L103.356 40.1231H107.79L105.47 23.2191H100.038L90.4019 40.1231H94.9002L97.2481 35.7341H102.945ZM98.4828 32.9751L100.449 29.3387C100.978 28.3607 101.535 27.0566 102.034 26.0283H102.093C102.182 27.0566 102.3 28.411 102.388 29.3387L102.77 32.9751H98.4828ZM109.408 40.1231H113.608L115.075 33.452H116.368C118.042 33.452 118.864 34.078 119.039 36.1347C119.245 38.2156 119.45 39.6705 119.627 40.1231H123.972C123.62 39.4208 123.443 37.2133 123.209 35.3318C123.003 33.8023 122.504 32.6751 121.33 32.2485V32.148C123.854 31.4457 125.823 29.8902 125.823 27.3827C125.823 25.8029 124.912 24.7243 123.62 24.0723C122.24 23.3439 120.301 23.0942 118.423 23.0942C116.455 23.0942 114.459 23.2694 113.138 23.5451L109.408 40.1231ZM116.75 26.0786C117.102 26.004 117.601 25.952 118.394 25.952C120.067 25.952 121.418 26.5555 121.418 27.9081C121.418 29.5642 119.745 30.7433 117.454 30.7433H115.692L116.75 26.0786ZM125.443 39.1693C126.383 39.7711 128.349 40.352 131.11 40.4023C135.515 40.4023 139.156 38.4428 139.156 34.6798C139.156 32.6751 137.63 31.2948 135.221 30.2162C133.548 29.4133 132.343 28.8116 132.343 27.8335C132.343 26.9058 133.371 26.0526 135.339 26.0526C136.983 26.0283 138.393 26.5052 139.038 26.8052L140.361 23.8208C139.508 23.3942 138.098 22.9434 135.691 22.9434C131.375 22.9434 127.881 25.0243 127.881 28.4353C127.881 30.6428 129.877 31.9468 131.991 32.9248C133.812 33.7277 134.663 34.3537 134.663 35.3075C134.663 36.6358 133.167 37.2878 131.523 37.2878C129.702 37.2878 128.028 36.8127 126.853 36.2092L125.443 39.1693ZM153.988 29.9144H146.941L147.762 26.304H155.221L155.927 23.2191H144.209L140.452 40.1231H152.578L153.254 37.0381H145.354L146.264 32.9509H153.312L153.988 29.9144ZM159.041 40.1231L160.333 34.2046C160.921 31.5462 161.391 29.1636 161.625 27.5075L161.713 27.4832C162.242 29.5642 162.769 31.0936 163.652 33.3757L166.411 40.1231H170.786L174.516 23.2191H170.582L169.231 29.3647C168.672 31.8462 168.409 33.7017 168.32 35.4324H168.232C167.762 33.5769 167.233 31.822 166.44 29.6647L163.827 23.2191H158.864L155.106 40.1231H159.041ZM196.895 40.1231C195.778 39.0185 194.779 37.9156 194.016 36.9618C196.277 35.1566 197.628 32.9751 198.686 30.3913H194.809C194.193 31.8965 193.342 33.452 192.079 34.6798C191.285 33.752 190.199 32.4983 189.435 31.4457V31.3694C192.606 30.1156 194.339 28.6624 194.339 26.7046C194.339 24.4486 192.284 22.9434 189.318 22.9434C185.677 22.9434 183.123 25.0503 183.123 27.7832C183.123 28.8116 183.592 29.7896 184.208 30.6428L184.18 30.7173C181.626 31.7214 179.422 33.3514 179.422 35.9335C179.422 38.6682 181.86 40.4023 185.531 40.4023C187.909 40.4023 189.582 39.7711 190.815 38.9682C191.197 39.3705 191.491 39.7468 191.902 40.1231H196.895ZM186.705 37.6902C184.737 37.6902 183.709 36.6115 183.709 35.3075C183.709 34.0277 184.766 33.2006 185.647 32.6491C186.794 34.1786 188.145 35.7584 189.142 36.8873C188.555 37.3381 187.791 37.6902 186.735 37.6902H186.705ZM188.966 25.2757C190.082 25.2757 190.581 25.952 190.581 26.7306C190.581 27.9844 189.318 28.9121 187.791 29.5139C187.264 28.8879 186.91 28.2098 186.91 27.4329C186.91 26.2035 187.82 25.2757 188.937 25.2757H188.966ZM207.586 40.1231H211.815L214.839 26.3786H220.125L220.829 23.2191H206.117L205.383 26.3786H210.61L207.586 40.1231ZM230.169 22.9434C227.321 22.9434 224.796 23.8468 222.946 25.352C220.626 27.2578 219.305 30.2907 219.305 33.3514C219.305 37.2878 222.181 40.4023 227.321 40.4023C230.287 40.4023 232.782 39.4954 234.632 37.9659C236.894 36.0601 238.156 33.0757 238.156 29.9907C238.156 25.952 235.397 22.9434 230.169 22.9434ZM229.671 25.952C232.782 25.952 233.665 27.9844 233.665 30.0913C233.665 32.0474 232.811 34.8306 231.256 36.1607C230.346 36.9115 229.172 37.3884 227.937 37.3884C225.06 37.3884 223.798 35.6075 223.798 33.2248C223.798 31.1942 224.679 28.5861 226.264 27.2318C227.174 26.4549 228.35 25.952 229.671 25.952ZM242.299 23.2191L240.214 32.6491C240.037 33.452 239.921 34.2792 239.921 35.0058C239.921 38.6179 242.417 40.4283 246.499 40.4023C251.871 40.4023 254.514 37.9399 255.66 32.8243L257.803 23.2191H253.576L251.401 32.9751C250.697 36.1104 249.23 37.3641 247.028 37.3641C245.118 37.3641 244.149 36.3098 244.149 34.9555C244.149 34.2046 244.208 33.5266 244.355 32.9509L246.528 23.2191H242.299ZM257.365 39.9219C258.334 40.0971 260.125 40.2514 262.357 40.2514C265.647 40.2514 268.142 39.8214 269.815 38.8693C271.373 37.9902 272.517 36.6618 272.517 34.8549C272.517 32.9994 271.314 31.6711 269.404 31.1682V31.0936C271.548 30.5682 273.398 29.2139 273.398 27.0809C273.398 25.652 272.429 24.5734 271.107 23.9977C269.786 23.3197 268.26 23.0942 266.203 23.0942C264.237 23.0942 262.416 23.2694 261.006 23.4948L257.365 39.9219ZM264.648 26.0283C264.97 25.952 265.558 25.9035 266.292 25.9035C267.908 25.9035 269.082 26.4289 269.082 27.6584C269.082 29.0873 267.497 29.9405 265.177 29.9405H263.767L264.648 26.0283ZM263.12 32.5728H264.443C266.41 32.5728 268.054 33.0757 268.054 34.7561C268.054 36.6358 265.969 37.4144 263.678 37.4144C263.061 37.4144 262.563 37.3884 262.064 37.3381L263.12 32.5728ZM273.899 40.1231H278.099L279.568 33.452H280.86C282.533 33.452 283.355 34.078 283.532 36.1347C283.737 38.2156 283.943 39.6705 284.118 40.1231H288.466C288.112 39.4208 287.937 37.2133 287.701 35.3318C287.495 33.8023 286.997 32.6751 285.821 32.2485V32.148C288.348 31.4457 290.316 29.8902 290.316 27.3827C290.316 25.8029 289.404 24.7243 288.112 24.0723C286.732 23.3439 284.795 23.0942 282.915 23.0942C280.947 23.0942 278.951 23.2694 277.629 23.5451L273.899 40.1231ZM281.241 26.0786C281.593 26.004 282.093 25.952 282.885 25.952C284.559 25.952 285.91 26.5555 285.91 27.9081C285.91 29.5642 284.236 30.7433 281.946 30.7433H280.184L281.241 26.0786ZM302.21 22.9434C299.361 22.9434 296.836 23.8468 294.986 25.352C292.666 27.2578 291.344 30.2907 291.344 33.3514C291.344 37.2878 294.223 40.4023 299.361 40.4023C302.326 40.4023 304.824 39.4954 306.672 37.9659C308.933 36.0601 310.196 33.0757 310.196 29.9907C310.196 25.952 307.437 22.9434 302.21 22.9434ZM301.711 25.952C304.824 25.952 305.704 27.9844 305.704 30.0913C305.704 32.0474 304.853 34.8306 303.296 36.1607C302.385 36.9115 301.211 37.3884 299.978 37.3884C297.1 37.3884 295.837 35.6075 295.837 33.2248C295.837 31.1942 296.718 28.5861 298.305 27.2318C299.214 26.4549 300.389 25.952 301.711 25.952Z" fill="#231F20"/>
</svg>
