<svg width="136" height="136" viewBox="0 0 136 136" fill="none" xmlns="http://www.w3.org/2000/svg">
<path d="M67.6116 135.223C104.952 135.223 135.223 104.952 135.223 67.6116C135.223 30.2707 104.952 0 67.6116 0C30.2707 0 0 30.2707 0 67.6116C0 104.952 30.2707 135.223 67.6116 135.223Z" fill="#FFC200"/>
<path fill-rule="evenodd" clip-rule="evenodd" d="M115.064 115.768C102.305 128.345 85.0746 135.342 67.1592 135.223C49.2437 135.104 32.1083 127.877 19.5176 115.132C21.1278 110.679 24.2553 106.935 28.3508 104.559C31.1112 102.518 34.1043 100.813 37.2673 99.4782C32.4579 82.9517 45.5316 74.8273 50.5336 72.4883C50.5336 80.1181 57.6776 75.0549 66.5437 75.1512C73.8431 75.2321 88.2779 82.5797 88.2779 72.8865C96.3081 75.2628 105.06 90.5662 99.0367 99.9683C101.506 101.176 103.84 102.644 105.997 104.349C110.214 107.032 113.407 111.053 115.064 115.768Z" fill="#677079"/>
<path fill-rule="evenodd" clip-rule="evenodd" d="M52.5838 84.6348L85.2299 84.8317V92.3521L85.2146 92.4681C85.1919 92.8087 85.1407 93.1469 85.0614 93.479L84.952 94.2251L84.8863 94.3805C82.7727 105.483 73.5237 109.774 67.8128 112.762C61.7956 109.485 53.2883 103.579 52.6122 93.1311L52.5838 93.002V92.5644C52.5791 92.4134 52.5762 92.2624 52.575 92.1114C52.575 92.1902 52.5816 92.2646 52.5838 92.3434V84.6348Z" fill="#F9DCA4"/>
<path opacity="0.11" fill-rule="evenodd" clip-rule="evenodd" d="M85.2335 84.4961V93.2593C85.2271 94.0716 85.1576 94.8822 85.0256 95.6837C84.8599 96.6758 84.581 97.6457 84.1942 98.5742C72.8512 107.14 54.7777 100.115 51.8916 85.4829L85.2335 84.4961Z" fill="black"/>
<path fill-rule="evenodd" clip-rule="evenodd" d="M39.6147 55.2168C28.8056 57.9957 37.9955 71.1679 44.7939 71.111C42.0523 66.1993 40.2932 60.8008 39.6147 55.2168ZM95.9205 55.2168C106.73 57.9957 97.5396 71.1679 90.7391 71.1088C93.4814 66.198 95.2413 60.8002 95.9205 55.2168Z" fill="#F9DCA4"/>
<path fill-rule="evenodd" clip-rule="evenodd" d="M67.2421 22.3494C112.148 22.3494 94.6478 93.3437 67.2421 93.3437C41.3572 93.3437 22.3362 22.3494 67.2421 22.3494Z" fill="#FFE8BE"/>
<path fill-rule="evenodd" clip-rule="evenodd" d="M46.0525 48.3659C46.4356 48.7859 46.7197 49.2863 46.8839 49.8305C47.0481 50.3747 47.0883 50.9487 47.0014 51.5105C46.9145 52.0722 46.7027 52.6073 46.3818 53.0764C46.0608 53.5455 45.6388 53.9367 45.1467 54.2212C41.974 56.8316 41.858 65.934 41.858 65.934C40.6327 64.7174 40.6611 58.2014 38.0048 54.4357C35.3485 50.67 33.5586 24.3212 48.4135 14.7396C47.5006 15.8133 46.8428 17.0797 46.4892 18.444C46.1356 19.8082 46.0956 21.2347 46.372 22.6167C46.372 22.6167 56.691 7.81871 73.8105 8.24538C72.4533 8.98542 71.2672 10.0031 70.3296 11.2322C69.392 12.4612 68.7239 13.874 68.3687 15.3785C68.3687 15.3785 83.3352 9.20376 95.8072 16.5491C92.5646 17.4454 89.4978 18.8859 86.7376 20.8093C92.7942 20.9756 98.6473 22.1003 103.061 26.0257C102.111 26.3306 101.232 26.8228 100.475 27.4732C99.719 28.1236 99.1006 28.919 98.6568 29.8124C98.2129 30.7058 97.9526 31.6791 97.8912 32.6748C97.8299 33.6704 97.9687 34.6683 98.2994 35.6095C100.172 43.2743 100.347 50.4052 98.5336 54.2387C96.7196 58.0723 95.8641 55.5975 94.7285 63.6365C94.6728 64.1796 94.4917 64.7023 94.1992 65.1633C93.9068 65.6243 93.5112 66.011 93.0437 66.2929C92.9999 66.8749 93.8795 58.0744 91.6105 55.731C89.3436 53.3898 90.7681 50.5125 91.6739 48.8101C97.9975 36.9354 79.0597 31.555 68.7079 31.5681C59.7302 31.579 38.0748 35.6598 46.0525 48.3659Z" fill="#8A5C42"/>
<path fill-rule="evenodd" clip-rule="evenodd" d="M43.3018 107.572C43.3674 107.656 66.0971 137.074 92.8179 107.135C89.5905 116.001 75.67 123.042 67.7076 123.02C52.5004 122.976 44.0851 110.767 43.3018 107.572Z" fill="#434955"/>
<path fill-rule="evenodd" clip-rule="evenodd" d="M79.5061 134.18C78.609 134.338 77.7075 134.475 76.7994 134.6V115.045C76.8327 114.718 76.9928 114.416 77.2455 114.205C77.4982 113.994 77.8234 113.891 78.1516 113.916C78.4802 113.89 78.806 113.993 79.0592 114.205C79.3124 114.416 79.4728 114.717 79.5061 115.045V134.18ZM58.0192 134.543C57.1118 134.413 56.2096 134.268 55.3125 134.106V115.045C55.3458 114.718 55.5059 114.416 55.7586 114.205C56.0113 113.994 56.3365 113.891 56.6647 113.916C56.9937 113.889 57.32 113.993 57.5737 114.204C57.8273 114.415 57.9881 114.717 58.0213 115.045L58.0192 134.543Z" fill="#E6E6E6"/>
</svg>
