<svg width="161" height="121" viewBox="0 0 161 121" fill="none" xmlns="http://www.w3.org/2000/svg">
<g clip-path="url(#clip0_1_350)">
<path d="M160.178 51.9611H102.262V37.125H160.178V51.9611Z" fill="#E669A2"/>
<path d="M152.655 51.9629H102.262V14.8564H152.655V51.9629Z" fill="#F3BE26"/>
<path d="M131.836 51.9621H102.262V0.0273438H131.836V51.9621Z" fill="#EE9C34"/>
<path d="M137.654 51.9621H102.262V5.82251H137.654V51.9621Z" fill="#F3BC87"/>
<path d="M102.253 5.8313V51.9575H131.832V5.8313H102.253Z" fill="#E3721C"/>
<path d="M72.6045 51.9629H102.26V59.3817H72.6045V51.9629Z" fill="#AD1B02"/>
<path d="M102.253 14.8474V51.9573H137.67V14.8474H102.253Z" fill="#E88D14"/>
<path d="M102.253 14.8474V51.9573H131.832V14.8474H102.253Z" fill="#D85604"/>
<path d="M120.756 51.9623H102.262V29.6904H120.756V51.9623Z" fill="#C14303"/>
<path d="M102.253 37.1367V51.9575H152.672V37.1367H102.253Z" fill="#DB4E18"/>
<path d="M102.253 37.1367V51.9575H137.67V37.1367H102.253Z" fill="#D1390D"/>
<path d="M102.253 37.1367V51.9575H131.832V37.1367H102.253Z" fill="#C22303"/>
<path d="M102.253 37.1367V51.9575H120.774V37.1367H102.253Z" fill="#AD1B02"/>
<path d="M108.708 79.9028C103.662 80.8006 100.971 84.6162 100.971 91.2373C100.971 97.9707 104.559 102.46 109.829 102.46C112.408 102.46 114.651 101.562 119.361 99.2052C119.361 104.704 119.361 104.704 119.361 104.704C113.642 107.397 110.278 108.071 105.793 108.071C100.747 108.071 97.1586 106.836 94.3554 103.806C91.44 100.889 89.8701 97.0729 89.8701 92.6962C89.8701 83.1573 97.0465 76.5361 107.475 76.5361C114.315 76.5361 119.136 79.7906 119.136 84.3917C119.136 87.4218 116.894 89.554 113.642 89.554C111.96 89.554 110.614 88.9929 108.708 87.9829" fill="black"/>
<path d="M83.4811 92.6962C88.0785 86.9729 89.7605 84.6162 89.7605 81.8106C89.7605 79.005 87.5179 76.5361 84.3782 76.5361C82.5841 76.5361 80.9021 77.5461 80.1172 78.4439C80.1172 90.2273 80.1172 90.2273 80.1172 90.2273C72.6044 100.327 72.6044 100.327 72.6044 100.327C72.6044 77.4339 72.6044 77.4339 72.6044 77.4339C65.428 77.4339 65.428 77.4339 65.428 77.4339C53.5421 97.0729 53.5421 97.0729 53.5421 97.0729C53.5421 77.4339 53.5421 77.4339 53.5421 77.4339C49.5054 77.4339 49.5054 77.4339 49.5054 77.4339C38.6287 79.9028 38.6287 79.9028 38.6287 79.9028C38.6287 82.7084 38.6287 82.7084 38.6287 82.7084C44.5716 83.2695 44.5716 83.2695 44.5716 83.2695C44.5716 107.622 44.5716 107.622 44.5716 107.622C52.0844 107.622 52.0844 107.622 52.0844 107.622C63.5218 88.7684 63.5218 88.7684 63.5218 88.7684C63.5218 107.622 63.5218 107.622 63.5218 107.622C71.9316 107.622 71.9316 107.622 71.9316 107.622" fill="black"/>
<path d="M15.8646 103.806C16.7617 103.806 16.9859 103.806 17.5466 103.806C23.6017 103.806 26.9656 100.103 26.9656 92.6964C26.9656 86.5241 24.2745 83.1574 19.2286 83.1574C18.5558 83.1574 17.5466 83.2697 15.8646 83.6063V103.806ZM15.8646 117.049C20.7984 118.171 20.7984 118.171 20.7984 118.171C20.7984 120.977 20.7984 120.977 20.7984 120.977C1.3997 120.977 1.3997 120.977 1.3997 120.977C1.3997 118.171 1.3997 118.171 1.3997 118.171C5.88495 117.049 5.88495 117.049 5.88495 117.049C5.88495 83.1574 5.88495 83.1574 5.88495 83.1574C0.951171 83.1574 0.951172 83.1574 0.951172 83.1574C0.951172 80.3519 0.951172 80.3519 0.951172 80.3519C12.7249 76.7607 12.7249 76.7607 12.7249 76.7607C15.8646 76.7607 15.8646 76.7607 15.8646 76.7607C15.8646 80.8008 15.8646 80.8008 15.8646 80.8008C21.3591 77.4341 23.2653 76.873 26.1807 76.873C32.6843 76.873 37.6181 82.933 37.6181 91.3497C37.6181 101.001 31.0023 107.622 20.9105 107.622C19.7892 107.622 17.883 107.51 15.8646 107.398" fill="black"/>
</g>
<defs>
<clipPath id="clip0_1_350">
<rect width="159.226" height="120.951" fill="white" transform="translate(0.951172 0.0273438)"/>
</clipPath>
</defs>
</svg>
