<svg width="35" height="34" viewBox="0 0 35 34" fill="none" xmlns="http://www.w3.org/2000/svg">
<path fill-rule="evenodd" clip-rule="evenodd" d="M26.5709 7.80625C24.1697 5.40217 20.9765 4.07759 17.5751 4.07617C10.5654 4.07617 4.85908 9.78109 4.85625 16.7936C4.85625 19.0348 5.44133 21.2221 6.55342 23.1516L4.75 29.7405L11.4919 27.9711C13.3506 28.984 15.4416 29.5181 17.5694 29.5195H17.5751C24.5833 29.5195 30.2897 23.8146 30.2925 16.8021C30.2925 13.4049 28.9722 10.2103 26.5709 7.80625ZM17.5751 27.3733H17.5708C15.6739 27.3718 13.8138 26.8633 12.1903 25.8985L11.805 25.669L7.80433 26.7188L8.87108 22.8187L8.62033 22.4192C7.56208 20.7362 7.00392 18.7911 7.00392 16.7936C7.00675 10.9654 11.7483 6.22384 17.5793 6.22384C20.4028 6.22525 23.0562 7.32601 25.0522 9.3235C27.0469 11.3224 28.1463 13.9773 28.1448 16.8021C28.142 22.6303 23.4004 27.3733 17.5751 27.3733ZM23.3735 19.4555C23.0548 19.2954 21.4936 18.5276 21.2018 18.4213C20.9113 18.3151 20.7003 18.2627 20.4878 18.58C20.2753 18.8973 19.6661 19.6128 19.4805 19.8253C19.2949 20.0378 19.1093 20.0633 18.792 19.9046C18.4747 19.7459 17.4504 19.4102 16.2363 18.3278C15.2914 17.4849 14.6539 16.4451 14.4683 16.1263C14.2828 15.8076 14.4485 15.6362 14.6086 15.4775C14.7517 15.3358 14.9259 15.1063 15.0846 14.9208C15.2433 14.7352 15.2957 14.6034 15.4019 14.3909C15.5082 14.1784 15.4558 13.9928 15.375 13.8342C15.2957 13.6741 14.6596 12.1101 14.3947 11.474C14.1383 10.8578 13.8762 10.9399 13.6807 10.9314C13.4965 10.9229 13.284 10.9201 13.0729 10.9201C12.8604 10.9201 12.5162 10.9994 12.2243 11.3168C11.9325 11.6355 11.1123 12.4033 11.1123 13.9673C11.1123 15.5313 12.2512 17.0429 12.4099 17.2554C12.5686 17.4679 14.6511 20.6767 17.8386 22.0537C18.5979 22.3809 19.1901 22.5764 19.6505 22.7238C20.4113 22.966 21.104 22.9306 21.6523 22.8498C22.2628 22.7592 23.5322 22.082 23.7971 21.3397C24.062 20.5973 24.062 19.9613 23.9827 19.8281C23.9033 19.6949 23.6894 19.6142 23.3735 19.4555Z" fill="white"/>
</svg>
