<svg width="205" height="204" viewBox="0 0 205 204" fill="none" xmlns="http://www.w3.org/2000/svg">
<path d="M164.946 88.8224C165.801 92.0804 169.141 94.0352 172.439 93.1392C175.697 92.284 177.652 88.9446 176.756 85.6458C175.901 82.3878 172.562 80.433 169.263 81.3289C166.045 82.2249 164.091 85.5644 164.946 88.8224Z" fill="#2A4C87"/>
<path d="M156.677 95.3375C158.876 94.7267 160.22 92.446 159.609 90.2469C158.998 88.0477 156.718 86.7038 154.518 87.3147C152.319 87.9255 150.975 90.2062 151.586 92.4053C152.156 94.6045 154.437 95.9077 156.677 95.3375Z" fill="#2A4C87"/>
<path d="M144.46 97.4563C146.089 97.0084 147.066 95.3386 146.618 93.7096C146.17 92.0806 144.501 91.1032 142.872 91.5512C141.243 91.9992 140.265 93.6689 140.713 95.2979C141.161 96.9269 142.831 97.9043 144.46 97.4563Z" fill="#2A4C87"/>
<path d="M134.971 98.88C135.989 98.5949 136.6 97.5358 136.356 96.5175C136.111 95.4992 135.012 94.8882 133.993 95.1326C132.975 95.4177 132.364 96.4768 132.608 97.4951C132.853 98.5134 133.912 99.1244 134.971 98.88Z" fill="#2E4E88"/>
<path d="M160.425 76.4414C161.973 79.0885 165.353 80.0252 168 78.4776C170.647 76.9301 171.584 73.5499 170.036 70.9027C168.489 68.2556 165.108 67.3189 162.461 68.8665C159.814 70.414 158.878 73.7942 160.425 76.4414Z" fill="#1F3D70"/>
<path d="M148.167 83.4875C149.226 85.3608 151.588 85.9717 153.461 84.9128C155.334 83.854 155.945 81.4919 154.886 79.6186C153.828 77.7452 151.466 77.1343 149.592 78.1932C147.76 79.252 147.108 81.6141 148.167 83.4875Z" fill="#1F3D70"/>
<path d="M139.45 85.3175C138.107 86.0913 137.659 87.761 138.432 89.1049C139.206 90.4489 140.876 90.8968 142.22 90.1231C143.564 89.3493 144.012 87.6796 143.238 86.3356C142.505 85.0324 140.794 84.5844 139.45 85.3175Z" fill="#1F3D70"/>
<path d="M131.672 90.9412C130.816 91.43 130.491 92.5298 130.979 93.3852C131.468 94.2406 132.568 94.5664 133.423 94.0776C134.279 93.5888 134.605 92.4891 134.116 91.6337C133.627 90.7783 132.527 90.4524 131.672 90.9412Z" fill="#1F3D70"/>
<path d="M159.812 65.566C161.767 63.6112 161.767 60.4754 159.812 58.5206C157.857 56.5657 154.722 56.5657 152.767 58.5206C150.812 60.4754 150.812 63.6112 152.767 65.566C154.681 67.5208 157.857 67.5208 159.812 65.566Z" fill="#194C88"/>
<path d="M147.637 70.6589C146.212 69.2335 143.931 69.2335 142.547 70.6589C141.121 72.0843 141.121 74.3649 142.547 75.7495C143.972 77.1749 146.253 77.1749 147.637 75.7495C149.063 74.3241 149.063 72.0435 147.637 70.6589Z" fill="#194C88"/>
<path d="M134.606 80.1471C133.629 81.1247 133.629 82.7133 134.606 83.6909C135.584 84.6684 137.172 84.6684 138.15 83.6909C139.128 82.7133 139.128 81.1247 138.15 80.1878C137.172 79.1695 135.584 79.1695 134.606 80.1471Z" fill="#194C88"/>
<path d="M128.457 89.8386C129.108 90.4903 130.167 90.4903 130.819 89.8386C131.471 89.1869 131.471 88.1278 130.819 87.4761C130.167 86.8244 129.108 86.8244 128.457 87.4761C127.805 88.1278 127.805 89.1869 128.457 89.8386Z" fill="#194C88"/>
<path d="M142.261 57.179C144.501 58.4822 147.392 57.7084 148.695 55.4685C149.999 53.2287 149.225 50.3372 146.985 49.034C144.745 47.7308 141.854 48.5045 140.55 50.7444C139.206 52.9843 139.98 55.8758 142.261 57.179Z" fill="#3468A3"/>
<path d="M133.83 65.1187C132.893 66.707 133.463 68.7432 135.051 69.6799C136.64 70.6166 138.676 70.0465 139.613 68.4582C140.549 66.8699 139.979 64.8336 138.391 63.8969C136.762 62.9603 134.726 63.5304 133.83 65.1187Z" fill="#3468A3"/>
<path d="M131.633 75.5428C130.574 74.9318 129.23 75.2984 128.619 76.3575C128.008 77.4165 128.375 78.7607 129.434 79.3717C130.493 79.9827 131.837 79.6161 132.448 78.557C133.059 77.498 132.692 76.1538 131.633 75.5428Z" fill="#3468A3"/>
<path d="M126.5 84.4238C125.767 84.0164 124.83 84.2608 124.423 84.994C124.015 85.7272 124.26 86.6641 124.993 87.0714C125.726 87.4787 126.663 87.2343 127.07 86.5011C127.478 85.7679 127.233 84.8311 126.5 84.4238Z" fill="#3468A3"/>
<path d="M129.88 51.7628C132.242 52.4144 134.685 50.9891 135.296 48.627C135.948 46.2649 134.522 43.8214 132.16 43.2105C129.798 42.5997 127.355 43.9843 126.744 46.3464C126.092 48.7084 127.518 51.152 129.88 51.7628Z" fill="#4C8DCB"/>
<path d="M126.133 65.688C127.762 66.136 129.432 65.1586 129.88 63.5296C130.328 61.9006 129.35 60.2309 127.721 59.7829C126.092 59.3349 124.423 60.3123 123.975 61.9413C123.567 63.5703 124.504 65.2401 126.133 65.688Z" fill="#4C8DCB"/>
<path d="M123.203 76.6866C124.303 76.9718 125.444 76.3201 125.729 75.2203C126.014 74.1205 125.362 72.98 124.262 72.6948C123.162 72.4097 122.022 73.0614 121.737 74.1612C121.452 75.2203 122.103 76.3608 123.203 76.6866Z" fill="#4C8DCB"/>
<path d="M119.943 83.5285C119.739 84.2617 120.187 85.0356 120.921 85.2393C121.654 85.443 122.428 84.9949 122.631 84.2617C122.835 83.5285 122.387 82.7546 121.654 82.5509C120.88 82.3473 120.106 82.7953 119.943 83.5285Z" fill="#4C8DCB"/>
<path d="M116.44 49.723C118.721 49.723 120.594 47.8496 120.594 45.569C120.594 43.2884 118.721 41.415 116.44 41.415C114.159 41.415 112.286 43.2884 112.286 45.569C112.286 47.8903 114.159 49.723 116.44 49.723Z" fill="#3498B3"/>
<path d="M116.44 58.6035C114.893 58.6035 113.671 59.8253 113.671 61.3728C113.671 62.9204 114.893 64.1421 116.44 64.1421C117.988 64.1421 119.21 62.9204 119.21 61.3728C119.21 59.866 117.988 58.6035 116.44 58.6035Z" fill="#3498B3"/>
<path d="M118.398 73.713C118.398 72.6539 117.542 71.7578 116.442 71.7578C115.343 71.7578 114.487 72.6132 114.487 73.713C114.487 74.8128 115.343 75.6681 116.442 75.6681C117.542 75.6681 118.398 74.772 118.398 73.713Z" fill="#3498B3"/>
<path d="M116.44 82.0205C115.748 82.0205 115.178 82.5908 115.178 83.2832C115.178 83.9757 115.748 84.5459 116.44 84.5459C117.133 84.5459 117.703 83.9757 117.703 83.2832C117.703 82.5908 117.133 82.0205 116.44 82.0205Z" fill="#3498B3"/>
<path d="M102.88 51.2732C104.957 50.703 106.178 48.5853 105.608 46.5083C105.038 44.4313 102.92 43.2096 100.843 43.7797C98.7663 44.3499 97.5445 46.4676 98.1147 48.5446C98.6848 50.5808 100.843 51.8026 102.88 51.2732Z" fill="#0AA496"/>
<path d="M103.572 63.4085C103.938 64.7527 105.282 65.5266 106.626 65.16C107.971 64.7935 108.745 63.4493 108.378 62.1051C108.011 60.7609 106.667 59.987 105.323 60.3536C104.02 60.7202 103.205 62.1051 103.572 63.4085Z" fill="#0AA496"/>
<path d="M107.442 75.1793C107.686 76.1569 108.705 76.7272 109.642 76.442C110.619 76.1976 111.189 75.1793 110.904 74.2425C110.66 73.2649 109.642 72.6946 108.705 72.9798C107.727 73.2242 107.198 74.2017 107.442 75.1793C107.442 75.1386 107.442 75.1386 107.442 75.1793Z" fill="#0AA496"/>
<path d="M110.576 84.2199C110.739 84.8309 111.35 85.1567 111.92 84.9938C112.531 84.8309 112.857 84.2199 112.694 83.6496C112.531 83.0386 111.92 82.7128 111.35 82.8757C110.78 83.0386 110.413 83.6089 110.576 84.2199Z" fill="#0AA496"/>
<path d="M90.1315 56.2811C91.842 55.3037 92.4529 53.0638 91.4754 51.3534C90.498 49.6429 88.2582 49.032 86.5477 50.0094C84.8372 50.9868 84.2264 53.2267 85.2038 54.9372C86.2219 56.6884 88.4211 57.2585 90.1315 56.2811Z" fill="#00AA75"/>
<path d="M97.3412 68.7447C98.4003 68.1338 98.7669 66.7896 98.1559 65.7305C97.5449 64.6715 96.2007 64.3049 95.1417 64.9159C94.0826 65.5269 93.716 66.871 94.327 67.9301C94.8973 68.9891 96.2822 69.3557 97.3412 68.7447Z" fill="#00AA75"/>
<path d="M103.205 78.9651C104.02 78.517 104.264 77.4987 103.816 76.6841C103.368 75.8694 102.35 75.625 101.535 76.0731C100.72 76.5211 100.476 77.5395 100.924 78.3541C101.413 79.128 102.431 79.4132 103.205 78.9651Z" fill="#00AA75"/>
<path d="M108.011 85.32C107.726 84.8719 107.155 84.709 106.667 84.9534C106.219 85.2385 106.056 85.8087 106.3 86.2975C106.585 86.7456 107.155 86.9085 107.603 86.6641C108.133 86.379 108.296 85.768 108.011 85.32Z" fill="#00AA75"/>
<path d="M79.016 64.4662C80.3192 63.163 80.3192 61.0453 79.016 59.7421C77.7128 58.4388 75.5951 58.4388 74.2919 59.7421C72.9887 61.0453 72.9887 63.163 74.2919 64.4662C75.6358 65.7694 77.7535 65.7694 79.016 64.4662Z" fill="#4FBA6A"/>
<path d="M89.2363 71.9222C88.4624 71.1483 87.2404 71.1483 86.5072 71.9222C85.7333 72.6962 85.7333 73.9181 86.5072 74.6513C87.2811 75.4252 88.5031 75.4252 89.2363 74.6513C89.9695 73.8774 89.9695 72.6554 89.2363 71.9222Z" fill="#4FBA6A"/>
<path d="M97.6678 80.9202C97.0569 80.3092 96.12 80.3092 95.509 80.9202C94.898 81.5311 94.898 82.468 95.509 83.079C96.12 83.69 97.0569 83.69 97.6678 83.079C98.2381 82.468 98.2381 81.5311 97.6678 80.9202Z" fill="#4FBA6A"/>
<path d="M103.94 88.1693C103.614 87.8435 103.084 87.8842 102.799 88.2101C102.473 88.5359 102.514 89.0654 102.84 89.3506C103.166 89.6357 103.655 89.6357 103.98 89.3506C104.266 89.0247 104.266 88.4952 103.94 88.1693Z" fill="#4FBA6A"/>
<path d="M66.1444 76.3197C67.6105 77.175 69.4839 76.6455 70.2984 75.2202C71.1536 73.754 70.6242 71.8807 69.1988 71.0662C67.7327 70.211 65.8594 70.7404 65.0449 72.1658C64.1896 73.5911 64.6783 75.4645 66.1444 76.3197Z" fill="#7EC45F"/>
<path d="M82.2731 80.2268C81.4585 79.7788 80.4809 80.0639 79.9921 80.8378C79.544 81.6525 79.8292 82.6301 80.6031 83.1189C81.4177 83.5669 82.3953 83.3225 82.8841 82.5079C83.3322 81.6932 83.0471 80.6749 82.2731 80.2268Z" fill="#7EC45F"/>
<path d="M92.8218 86.6229C92.1701 86.2563 91.3147 86.46 90.9481 87.1524C90.5815 87.8042 90.7852 88.6595 91.4776 89.0261C92.1294 89.3927 92.9847 89.1891 93.3513 88.5373C93.7179 87.8856 93.4735 87.0302 92.8218 86.6229Z" fill="#7EC45F"/>
<path d="M172.805 95.1328C169.14 95.1328 166.126 98.1057 166.126 101.812C166.126 105.477 169.099 108.491 172.805 108.491C176.47 108.491 179.443 105.518 179.484 101.852C179.443 98.1465 176.47 95.1328 172.805 95.1328Z" fill="#4C609B"/>
<path d="M161.769 101.812C161.769 99.1646 159.651 97.0469 157.004 97.0469C154.357 97.0469 152.239 99.1646 152.239 101.812C152.239 104.459 154.357 106.577 157.004 106.577C159.611 106.577 161.769 104.459 161.769 101.812Z" fill="#4C609B"/>
<path d="M144.664 98.5537C142.872 98.5537 141.406 100.02 141.406 101.812C141.406 103.604 142.872 105.07 144.664 105.07C146.456 105.07 147.922 103.604 147.922 101.812C147.922 100.02 146.456 98.5537 144.664 98.5537Z" fill="#4C609B"/>
<path d="M137.213 101.814C137.213 100.633 136.276 99.6963 135.095 99.6963C133.913 99.6963 132.977 100.633 132.977 101.814C132.977 102.996 133.913 103.932 135.095 103.932C136.276 103.932 137.213 102.996 137.213 101.814Z" fill="#54669F"/>
<path d="M172.438 110.445C169.18 109.549 165.84 111.504 164.944 114.762C164.048 118.02 166.003 121.36 169.261 122.255C172.519 123.151 175.859 121.197 176.754 117.939C176.754 117.939 176.754 117.939 176.754 117.898C177.61 114.681 175.655 111.341 172.438 110.445Z" fill="#746FA7"/>
<path d="M154.518 116.269C156.717 116.88 158.998 115.536 159.609 113.337C160.22 111.138 158.876 108.857 156.677 108.246C154.477 107.635 152.197 108.979 151.586 111.179C150.975 113.378 152.278 115.658 154.518 116.269Z" fill="#746FA7"/>
<path d="M142.873 112.034C144.502 112.482 146.171 111.505 146.619 109.876C147.067 108.247 146.09 106.577 144.461 106.129C142.832 105.681 141.162 106.659 140.714 108.288C140.307 109.917 141.244 111.586 142.873 112.034Z" fill="#746FA7"/>
<path d="M133.953 108.492C134.971 108.777 136.03 108.166 136.315 107.107C136.601 106.089 135.99 105.03 134.93 104.745C133.912 104.46 132.853 105.071 132.568 106.13C132.283 107.107 132.894 108.207 133.953 108.492C133.953 108.451 133.953 108.451 133.953 108.492Z" fill="#746FA7"/>
<path d="M167.999 125.108C165.352 123.56 161.972 124.497 160.424 127.144C158.877 129.791 159.813 133.171 162.46 134.719C165.107 136.266 168.488 135.33 170.035 132.683C171.542 130.035 170.646 126.655 167.999 125.108Z" fill="#99558E"/>
<path d="M154.926 123.97C155.984 122.097 155.374 119.734 153.5 118.676C151.627 117.617 149.265 118.228 148.206 120.101C147.147 121.974 147.758 124.336 149.631 125.395C151.464 126.454 153.826 125.803 154.926 123.97Z" fill="#99558E"/>
<path d="M143.238 117.246C144.012 115.902 143.564 114.232 142.22 113.459C140.876 112.685 139.206 113.133 138.432 114.477C137.659 115.821 138.107 117.49 139.45 118.264C140.794 118.997 142.464 118.549 143.238 117.246Z" fill="#99558E"/>
<path d="M134.157 111.952C134.645 111.096 134.36 109.996 133.505 109.467C132.649 108.978 131.55 109.263 131.02 110.119C130.491 110.974 130.816 112.074 131.672 112.603C131.672 112.603 131.672 112.603 131.713 112.603C132.568 113.092 133.668 112.807 134.157 111.952Z" fill="#99558E"/>
<path d="M152.728 138.02C150.773 139.974 150.773 143.11 152.728 145.065C154.683 147.02 157.818 147.02 159.773 145.065C161.728 143.11 161.728 139.974 159.773 138.02C157.859 136.105 154.683 136.105 152.728 138.02Z" fill="#AF3379"/>
<path d="M147.637 132.927C149.063 131.502 149.063 129.221 147.637 127.837C146.212 126.411 143.931 126.411 142.547 127.837C141.121 129.262 141.121 131.543 142.547 132.927C143.931 134.353 146.212 134.353 147.637 132.927Z" fill="#AF3379"/>
<path d="M138.15 123.439C139.128 122.461 139.128 120.873 138.15 119.895C137.172 118.918 135.584 118.918 134.606 119.895C133.629 120.873 133.629 122.461 134.606 123.398C135.584 124.417 137.172 124.417 138.15 123.439Z" fill="#AF3379"/>
<path d="M128.454 116.069C129.105 116.721 130.164 116.721 130.816 116.069C131.468 115.417 131.468 114.358 130.816 113.707C130.164 113.055 129.105 113.055 128.454 113.707C127.802 114.358 127.802 115.417 128.454 116.069Z" fill="#AF3379"/>
<path d="M142.261 146.407C140.021 147.71 139.247 150.602 140.551 152.842C141.854 155.081 144.745 155.855 146.985 154.552C149.225 153.249 149.999 150.357 148.696 148.117C147.392 145.878 144.501 145.104 142.261 146.407Z" fill="#BE266A"/>
<path d="M139.574 135.166C138.637 133.578 136.641 133.008 135.012 133.945C133.424 134.881 132.854 136.877 133.791 138.506C134.727 140.094 136.723 140.664 138.352 139.728C139.94 138.791 140.51 136.755 139.574 135.166Z" fill="#BE266A"/>
<path d="M131.633 128.043C132.692 127.432 133.059 126.087 132.448 125.028C131.837 123.969 130.493 123.603 129.434 124.214C128.375 124.825 128.008 126.169 128.619 127.228C129.23 128.287 130.574 128.654 131.633 128.043Z" fill="#BE266A"/>
<path d="M124.993 116.515C124.26 116.922 124.015 117.859 124.423 118.592C124.83 119.325 125.767 119.57 126.5 119.162C127.233 118.755 127.478 117.818 127.07 117.085C126.663 116.352 125.726 116.107 124.993 116.515Z" fill="#BE266A"/>
<path d="M129.88 151.824C127.518 152.476 126.092 154.878 126.744 157.241C127.396 159.603 129.798 161.028 132.16 160.376C134.522 159.725 135.948 157.322 135.296 154.96C134.685 152.598 132.242 151.172 129.88 151.824Z" fill="#D4525C"/>
<path d="M127.721 143.758C129.35 143.31 130.328 141.64 129.88 140.011C129.432 138.382 127.762 137.405 126.133 137.853C124.504 138.301 123.567 139.971 123.975 141.6C124.423 143.269 126.092 144.206 127.721 143.758C127.721 143.799 127.721 143.799 127.721 143.758Z" fill="#D4525C"/>
<path d="M125.729 128.365C125.444 127.266 124.303 126.614 123.203 126.899C122.103 127.184 121.452 128.325 121.737 129.424C122.022 130.524 123.162 131.176 124.262 130.891C125.403 130.646 126.054 129.506 125.729 128.365C125.729 128.406 125.729 128.406 125.729 128.365Z" fill="#D4525C"/>
<path d="M122.592 119.326C122.388 118.592 121.614 118.144 120.881 118.348C120.148 118.552 119.7 119.326 119.904 120.059C120.107 120.792 120.841 121.24 121.615 121.036C122.348 120.833 122.796 120.059 122.592 119.326Z" fill="#D4525C"/>
<path d="M116.44 153.861C114.159 153.861 112.286 155.735 112.286 158.015C112.286 160.296 114.159 162.169 116.44 162.169C118.721 162.169 120.594 160.337 120.594 158.015C120.594 155.735 118.761 153.861 116.44 153.861Z" fill="#E0654F"/>
<path d="M113.671 142.213C113.671 143.76 114.893 144.982 116.44 144.982C117.988 144.982 119.21 143.76 119.21 142.213C119.21 140.665 117.988 139.443 116.44 139.443C114.933 139.443 113.671 140.665 113.671 142.213Z" fill="#E0654F"/>
<path d="M116.442 131.787C117.502 131.787 118.398 130.932 118.398 129.832C118.398 128.732 117.542 127.877 116.442 127.877C115.383 127.877 114.487 128.732 114.487 129.832C114.528 130.932 115.383 131.787 116.442 131.787C116.442 131.828 116.442 131.828 116.442 131.787Z" fill="#E0654F"/>
<path d="M116.44 119.039C115.748 119.039 115.178 119.609 115.178 120.302C115.178 120.994 115.748 121.564 116.44 121.564C117.133 121.564 117.703 120.994 117.703 120.302C117.703 119.609 117.133 119.039 116.44 119.039Z" fill="#E0654F"/>
<path d="M102.88 152.313C100.803 151.743 98.685 153.005 98.1149 155.042C97.5447 157.119 98.8072 159.236 100.843 159.807C102.92 160.377 105.038 159.114 105.608 157.078C106.178 155.001 104.957 152.883 102.88 152.313Z" fill="#F57F2A"/>
<path d="M106.626 138.383C105.282 138.016 103.938 138.831 103.572 140.135C103.205 141.479 104.02 142.823 105.323 143.189C106.667 143.556 108.011 142.741 108.378 141.438C108.745 140.135 107.971 138.75 106.626 138.383Z" fill="#F57F2A"/>
<path d="M109.642 127.143C108.664 126.898 107.687 127.468 107.442 128.405C107.198 129.383 107.768 130.36 108.705 130.605C109.683 130.849 110.66 130.279 110.905 129.342C111.19 128.405 110.619 127.428 109.642 127.143Z" fill="#F57F2A"/>
<path d="M112.735 119.934C112.897 119.323 112.531 118.712 111.961 118.59C111.39 118.468 110.739 118.794 110.616 119.364C110.494 119.934 110.82 120.586 111.39 120.708C111.961 120.871 112.572 120.545 112.735 119.934Z" fill="#F57F2A"/>
<path d="M90.1329 147.303C88.4225 146.325 86.2233 146.896 85.2052 148.606C84.2278 150.317 84.7979 152.516 86.5084 153.534C88.2189 154.511 90.418 153.941 91.4362 152.231C92.4543 150.52 91.8434 148.321 90.1329 147.303Z" fill="#F89828"/>
<path d="M97.3412 134.841C96.2822 134.23 94.938 134.596 94.327 135.655C93.716 136.714 94.0826 138.059 95.1417 138.67C96.2007 139.281 97.5449 138.914 98.1559 137.855C98.7669 136.796 98.4003 135.452 97.3412 134.841Z" fill="#F89828"/>
<path d="M101.577 127.512C102.391 127.96 103.41 127.716 103.858 126.901C104.306 126.087 104.061 125.068 103.247 124.62C102.432 124.172 101.414 124.417 100.966 125.231C100.518 126.046 100.762 127.064 101.577 127.512Z" fill="#F89828"/>
<path d="M107.687 116.923C107.239 116.637 106.628 116.8 106.383 117.289C106.098 117.737 106.261 118.348 106.75 118.593C107.198 118.878 107.809 118.715 108.054 118.226C108.298 117.819 108.135 117.208 107.687 116.923C107.687 116.963 107.687 116.963 107.687 116.923Z" fill="#F89828"/>
<path d="M74.3338 139.116C73.0306 140.419 73.0306 142.537 74.3338 143.84C75.6371 145.143 77.7548 145.143 79.058 143.84C80.3612 142.537 80.3612 140.419 79.058 139.116C77.7548 137.813 75.6371 137.813 74.3338 139.116Z" fill="#FEC127"/>
<path d="M86.5072 128.936C85.7333 129.71 85.7333 130.932 86.5072 131.665C87.2811 132.439 88.5031 132.439 89.2363 131.665C89.9695 130.891 90.0102 129.669 89.2363 128.936C88.5031 128.162 87.2404 128.162 86.5072 128.936Z" fill="#FEC127"/>
<path d="M95.509 120.505C94.898 121.116 94.898 122.053 95.509 122.664C96.12 123.275 97.0569 123.275 97.6678 122.664C98.2788 122.053 98.2788 121.116 97.6678 120.505C97.0569 119.894 96.0793 119.894 95.509 120.505Z" fill="#FEC127"/>
<path d="M103.94 114.233C103.614 113.907 103.084 113.948 102.799 114.274C102.473 114.599 102.514 115.129 102.84 115.414C103.166 115.699 103.655 115.699 103.98 115.414C104.266 115.088 104.266 114.559 103.94 114.233Z" fill="#FEC127"/>
<path d="M66.2285 127.185C64.7624 128.04 64.2737 129.873 65.129 131.339C65.9842 132.805 67.8168 133.294 69.2829 132.438C70.749 131.583 71.2377 129.75 70.3825 128.284C69.568 126.818 67.6946 126.33 66.2285 127.185Z" fill="#FED627"/>
<path d="M80.6032 120.465C79.8293 120.913 79.5442 121.931 79.9922 122.746C80.4403 123.52 81.4586 123.805 82.2733 123.357C83.0472 122.909 83.3323 121.891 82.8842 121.076C82.4362 120.302 81.4179 120.017 80.6032 120.465Z" fill="#FED627"/>
<path d="M91.435 114.559C90.7833 114.926 90.5389 115.781 90.9462 116.433C91.3128 117.085 92.1682 117.329 92.8199 116.922C93.4716 116.555 93.716 115.7 93.3087 115.048C92.9421 114.397 92.0867 114.152 91.435 114.559Z" fill="#FED627"/>
<path d="M60.0378 92.1195H64.9248V110.935H60.0378V92.1195ZM63.0107 83.7301C61.5039 83.3229 59.9563 84.2188 59.5491 85.7256C59.1418 87.2325 60.0378 88.78 61.5446 89.1873C63.0514 89.5945 64.599 88.6986 65.0062 87.1917C65.4135 85.6849 64.5175 84.0966 63.0107 83.7301ZM80.0338 111.342C78.8528 111.342 77.6718 111.138 76.5722 110.649C75.5948 110.201 74.7396 109.509 74.088 108.654V120.342H69.3231V92.1195H74.0472V94.7259C74.6581 93.7892 75.5133 93.0562 76.5315 92.5267C77.5903 91.9973 78.7714 91.7122 79.9931 91.7122C81.1741 91.7122 82.3144 91.9566 83.414 92.4046C84.5136 92.8525 85.491 93.5449 86.3055 94.3594C87.1607 95.2553 87.8531 96.3142 88.301 97.4545C88.8305 98.7577 89.0748 100.102 89.0341 101.486C89.0748 102.871 88.7898 104.256 88.2603 105.559C87.7716 106.699 87.0793 107.758 86.2241 108.654C84.6358 110.364 82.3552 111.342 80.0338 111.342ZM79.0564 106.781C79.7488 106.781 80.4411 106.658 81.0927 106.373C81.7036 106.088 82.2737 105.722 82.7624 105.233C83.2511 104.744 83.6177 104.174 83.862 103.563C84.3914 102.219 84.3914 100.753 83.862 99.4093C83.6177 98.7984 83.2104 98.2283 82.7624 97.7396C82.2737 97.2509 81.7036 96.8843 81.0927 96.5993C80.4411 96.3142 79.7488 96.192 79.0564 96.192C77.6718 96.192 76.3278 96.7622 75.3097 97.7396C74.821 98.2283 74.4545 98.7984 74.2101 99.4093C73.6807 100.753 73.6807 102.219 74.2101 103.523C74.4545 104.133 74.821 104.704 75.3097 105.192C76.3278 106.251 77.6718 106.821 79.0564 106.781ZM92.5365 92.1195H97.2606V95.011C97.6678 93.9929 98.3602 93.1376 99.2969 92.5675C100.274 92.038 101.333 91.753 102.473 91.7937C103.084 91.7937 103.654 91.8751 104.225 91.9973C104.713 92.1195 105.202 92.2824 105.65 92.5267L103.899 97.2509C103.573 97.0472 103.206 96.8843 102.84 96.7622C102.351 96.64 101.863 96.5585 101.374 96.5585C100.274 96.5178 99.2154 96.8843 98.4009 97.5767C97.6678 98.269 97.3013 99.4093 97.3013 100.957V110.894H92.5365V92.1195ZM116.279 111.342C114.935 111.342 113.591 111.097 112.329 110.568C111.148 110.079 110.089 109.346 109.152 108.45C107.32 106.618 106.302 104.133 106.302 101.527C106.302 100.224 106.546 98.9206 107.035 97.6988C107.523 96.5178 108.216 95.459 109.112 94.563C113.062 90.7348 119.334 90.7348 123.284 94.563C125.117 96.3956 126.175 98.8799 126.175 101.486C126.175 102.789 125.931 104.093 125.402 105.274C124.913 106.455 124.18 107.514 123.325 108.41C122.429 109.306 121.37 110.039 120.148 110.527C118.967 111.057 117.623 111.342 116.279 111.342ZM116.32 106.781C117.012 106.781 117.705 106.658 118.356 106.373C118.967 106.088 119.497 105.722 119.985 105.274C120.474 104.785 120.84 104.215 121.085 103.604C121.614 102.26 121.614 100.794 121.085 99.4908C120.84 98.8799 120.474 98.3097 119.985 97.821C119.497 97.3323 118.967 96.9658 118.356 96.7214C117.053 96.1513 115.587 96.1513 114.324 96.7214C113.714 97.0065 113.184 97.373 112.695 97.821C112.207 98.3097 111.84 98.8799 111.596 99.4908C111.066 100.835 111.066 102.301 111.596 103.604C111.84 104.215 112.207 104.785 112.695 105.274C113.184 105.762 113.714 106.129 114.324 106.373C114.935 106.618 115.628 106.781 116.32 106.781ZM26.0322 92.1195H30.9193L34.7067 104.133L39.1865 92.1195H43.4219L47.8202 104.133L51.7705 92.1195H56.6576L50.2637 110.935H45.7432L41.2635 98.6763L36.743 110.935H32.141L26.0322 92.1195Z" fill="#351A55"/>
</svg>
